<svg xmlns="http://www.w3.org/2000/svg" height="24" viewBox="0 -960 960 960" width="24"><path d="M442.5-494.5v134q0 15.5 11 26.5t26.5 11q15.5 0 26.5-11t11-26.5v-134L558-454q10.5 10.5 25.75 10.5t26.25-11q11-11 11-26.25t-10.952-26.202L506.5-610.5Q495.182-622 480.091-622T453.5-610.5l-104 104Q339-496 339-480.75t11 26.25q11 11 26.25 11t26.25-11l40-40ZM480-90q-80.907 0-152.065-30.763-71.159-30.763-123.797-83.5Q151.5-257 120.75-328.087 90-399.175 90-480q0-80.907 30.763-152.065 30.763-71.159 83.5-123.797Q257-808.5 328.087-839.25 399.175-870 480-870q80.907 0 152.065 30.763 71.159 30.763 123.797 83.5Q808.5-703 839.25-631.913 870-560.825 870-480q0 80.907-30.763 152.065-30.763 71.159-83.5 123.797Q703-151.5 631.913-120.75 560.825-90 480-90Zm0-75q131.5 0 223.25-91.75T795-480q0-131.5-91.75-223.25T480-795q-131.5 0-223.25 91.75T165-480q0 131.5 91.75 223.25T480-165Zm0-315Z"/></svg>